<?xml version="1.0" standalone="no"?>
<!DOCTYPE svg PUBLIC "-//W3C//DTD SVG 20010904//EN"
 "http://www.w3.org/TR/2001/REC-SVG-20010904/DTD/svg10.dtd">
<svg version="1.0" xmlns="http://www.w3.org/2000/svg"
 width="345.000000pt" height="345.000000pt" viewBox="0 0 345.000000 345.000000"
 preserveAspectRatio="xMidYMid meet">
<metadata>
Created by potrace 1.14, written by Peter Selinger 2001-2017
</metadata>
<g transform="translate(0.000000,345.000000) scale(0.100000,-0.100000)"
fill="#000000" stroke="none">
<path d="M24 3403 c3 -27 6 -55 7 -63 18 -195 41 -274 105 -365 17 -24 22 -52
28 -140 4 -60 11 -126 16 -145 28 -110 52 -711 29 -725 -6 -5 -7 -11 0 -19 5
-6 11 -108 14 -226 2 -123 11 -266 21 -335 9 -66 19 -160 21 -210 3 -49 6
-108 8 -131 2 -22 -4 -92 -13 -155 -10 -63 -24 -177 -31 -253 -12 -131 -11
-140 6 -152 10 -7 21 -11 26 -9 8 5 29 -79 29 -118 1 -24 31 -122 50 -159 29
-55 110 -120 110 -88 0 6 -5 10 -10 10 -18 0 -90 82 -96 109 -3 14 -12 43 -20
64 -8 20 -16 56 -19 80 -3 23 -9 55 -13 72 -7 26 -5 32 22 50 16 11 41 41 54
68 24 46 25 47 39 27 8 -12 19 -54 24 -93 8 -66 25 -151 36 -187 4 -12 6 -12
10 -1 10 25 -30 236 -53 282 l-23 47 38 73 c52 102 73 186 75 296 0 51 2 93 3
93 2 0 13 -19 25 -43 18 -34 23 -66 28 -162 7 -135 13 -128 11 15 -1 84 -4
102 -31 157 l-31 62 26 159 c14 88 25 202 25 253 0 126 20 160 33 59 15 -113
66 -261 98 -287 20 -15 93 -27 84 -14 -4 7 2 7 19 -1 21 -9 26 -18 26 -47 1
-224 10 -382 36 -601 39 -324 40 -336 55 -410 6 -30 11 -77 12 -105 0 -27 5
-53 10 -56 5 -4 10 -21 11 -38 1 -23 7 -33 21 -37 11 -2 188 -3 393 -2 l374 3
18 53 c11 29 17 61 14 70 -5 14 -3 13 6 -1 10 -15 8 -30 -9 -73 l-20 -54 265
0 c209 0 264 3 258 13 -6 10 -4 10 7 0 26 -26 48 -13 96 55 89 124 178 245
221 299 24 29 78 110 121 181 43 70 110 175 150 234 62 93 165 286 242 456 13
29 55 117 93 195 138 287 166 382 173 598 6 174 -2 234 -47 385 -55 184 -211
396 -390 531 -91 69 -273 166 -346 184 -29 8 -44 17 -44 28 0 14 -2 14 -11 1
-9 -13 -10 -13 -6 0 2 8 10 15 17 15 33 0 79 134 80 233 0 35 -3 42 -19 42
-16 0 -19 -8 -19 -50 -1 -28 -4 -60 -7 -71 -4 -12 -8 -31 -9 -44 -5 -42 -54
-91 -129 -129 -77 -38 -111 -45 -124 -22 -15 26 -166 116 -204 122 -72 12
-117 78 -104 153 l7 41 -970 0 -971 0 -4 -23 -4 -22 -2 23 c-1 17 -7 22 -27
22 -25 0 -26 -2 -20 -47z m218 -13 c14 -29 15 -43 7 -83 -7 -29 -18 -51 -30
-57 -13 -7 -19 -7 -19 0 0 5 4 10 10 10 5 0 13 16 19 35 11 40 0 87 -28 119
-15 17 -15 18 4 15 11 -2 28 -20 37 -39z m-178 -14 c-3 -9 -10 -16 -15 -16 -6
0 -5 9 1 21 13 24 24 20 14 -5z m6 -46 c0 -5 -2 -10 -4 -10 -3 0 -8 5 -11 10
-3 6 -1 10 4 10 6 0 11 -4 11 -10z m1597 -36 c-3 -3 -12 -4 -19 -1 -8 3 -5 6
6 6 11 1 17 -2 13 -5z m-149 -31 c-10 -2 -26 -2 -35 0 -10 3 -2 5 17 5 19 0
27 -2 18 -5z m-127 -24 l44 -22 -39 -14 c-22 -7 -41 -12 -42 -10 -4 4 -15 67
-11 67 2 0 23 -10 48 -21z m570 0 c9 -5 43 -11 75 -13 33 -2 82 -15 109 -28
101 -47 209 -138 221 -186 4 -13 12 -21 19 -18 18 7 87 -97 108 -164 22 -65
38 -173 27 -180 -4 -3 -4 -13 -1 -23 6 -17 -10 -142 -25 -192 -21 -70 -61
-156 -90 -192 -19 -23 -34 -45 -34 -50 0 -4 -38 -46 -85 -91 -78 -77 -86 -82
-101 -67 -9 9 -13 19 -10 23 4 3 11 1 15 -6 6 -9 15 -6 34 14 26 26 26 28 11
46 -24 25 -46 23 -73 -8 -18 -20 -20 -28 -10 -34 7 -5 12 -22 12 -40 0 -20 3
-26 9 -18 6 10 8 9 8 -3 0 -9 -12 -25 -27 -34 -15 -10 -56 -46 -92 -81 -64
-63 -81 -74 -81 -54 0 5 -6 8 -12 6 -7 -1 -10 -1 -5 1 17 10 5 24 -15 18 -16
-4 -19 -3 -9 3 17 12 0 24 -18 12 -8 -4 -11 -15 -8 -24 5 -14 3 -15 -13 -6
-25 14 -35 13 -22 -2 8 -10 -9 -13 -78 -13 -58 0 -93 4 -101 13 -11 10 -8 12
12 12 23 1 23 1 5 15 -41 31 -90 13 -88 -33 1 -35 -11 -40 -78 -32 -44 5 -45
6 -47 43 -1 27 4 41 19 52 19 12 20 21 15 82 -7 81 -13 117 -26 161 -5 18 -6
32 -1 32 5 0 12 -16 16 -35 3 -19 10 -35 16 -35 5 0 6 -4 3 -10 -3 -5 -1 -10
5 -10 6 0 8 -4 5 -10 -10 -17 7 -11 22 8 8 9 11 11 8 4 -5 -9 -1 -12 11 -10
13 2 20 -4 22 -19 2 -15 -2 -23 -12 -23 -16 0 -56 -46 -56 -64 0 -6 5 -4 10 4
5 8 10 11 10 5 0 -5 -4 -16 -9 -24 -6 -8 -5 -18 2 -25 11 -13 72 -14 84 -2 5
4 10 44 12 87 3 76 5 81 30 90 25 10 26 11 6 25 -17 13 -18 16 -5 24 20 13 24
100 5 125 -11 16 -14 17 -15 5 0 -9 5 -21 10 -26 12 -12 2 -74 -11 -74 -5 0
-6 7 -2 16 3 9 0 20 -8 25 -11 7 -10 9 4 9 26 0 16 24 -11 28 -12 2 -22 10
-22 18 0 18 53 40 58 24 2 -5 10 -17 18 -24 8 -8 11 -21 8 -29 -3 -9 -1 -24 5
-35 8 -15 8 -22 -2 -25 -9 -4 -9 -7 1 -18 10 -11 12 -10 12 4 0 9 5 17 11 17
6 0 8 -7 5 -16 -3 -8 -2 -12 3 -9 12 7 42 -35 34 -48 -4 -6 -1 -7 6 -3 9 6 9
12 -1 26 -7 11 -26 37 -42 60 -16 22 -26 43 -23 46 3 3 17 -15 32 -40 22 -37
66 -83 121 -125 20 -16 52 -22 59 -12 3 6 -11 19 -32 30 -57 31 -86 59 -136
132 l-45 66 39 -21 c32 -18 37 -25 32 -46 -5 -25 -5 -25 11 -5 17 20 17 20 7
-1 -14 -29 -8 -32 44 -26 49 5 57 -6 31 -43 -12 -17 -11 -22 1 -34 13 -12 14
-11 8 8 -5 15 -2 23 12 27 10 3 27 9 38 14 44 18 54 19 49 5 -3 -7 -12 -16
-20 -19 -8 -3 -14 -12 -14 -21 0 -9 -9 -15 -25 -15 -14 0 -25 -3 -25 -7 0 -9
34 -14 108 -15 45 -1 52 -4 52 -21 0 -16 2 -17 15 -7 11 9 12 16 5 20 -11 7
24 43 53 53 21 8 22 30 2 47 -12 10 -18 10 -29 1 -12 -10 -18 -7 -31 19 -9 17
-27 35 -40 40 -18 7 -22 14 -18 31 5 20 3 21 -20 15 -20 -5 -27 -3 -27 9 0 8
-4 15 -9 15 -5 0 -3 14 6 31 10 20 13 45 10 70 l-5 40 38 -33 c42 -37 60 -64
35 -54 -10 3 -13 2 -10 -4 4 -6 14 -9 23 -8 10 2 16 -3 14 -10 -1 -7 4 -23 13
-35 8 -12 15 -17 15 -11 0 5 -6 16 -12 22 -10 10 -10 15 2 22 12 8 -1 25 -68
88 -82 79 -82 79 -68 107 19 36 10 117 -17 162 -10 18 -16 33 -12 33 7 0 85
-42 154 -83 19 -12 32 -16 28 -10 -4 6 -46 33 -94 60 -84 47 -109 57 -268 103
-93 27 -204 69 -210 81 -4 5 1 6 9 3 21 -8 20 10 0 27 -9 8 -46 30 -83 49 -67
35 -89 63 -107 134 -5 23 -3 26 20 26 16 0 26 -6 26 -15 0 -8 5 -15 10 -15 5
0 9 5 7 12 -1 7 8 17 21 23 24 11 31 31 7 21 -22 -8 -18 2 6 15 15 8 19 8 15
0 -11 -17 5 -13 18 4 9 13 11 11 11 -9 0 -13 -3 -22 -7 -19 -5 2 -8 0 -8 -5 0
-5 11 -12 25 -15 21 -3 29 1 41 24 8 16 20 29 26 29 6 0 8 3 5 7 -10 10 43 34
93 42 62 11 251 11 271 0z m-400 -66 c-12 -20 -14 -14 -5 12 4 9 9 14 11 11 3
-2 0 -13 -6 -23z m1020 -83 c51 -17 136 -51 188 -77 99 -47 149 -91 291 -253
59 -67 125 -160 114 -160 -4 0 0 -8 8 -17 28 -34 128 -269 147 -348 23 -94 34
-176 21 -155 -6 9 -9 -21 -9 -77 0 -51 -7 -118 -15 -150 -16 -60 -111 -309
-125 -328 -5 -5 -21 -41 -36 -80 -15 -38 -61 -138 -101 -221 -41 -84 -74 -154
-74 -157 0 -9 -111 -195 -183 -307 -37 -58 -101 -159 -142 -225 -40 -66 -84
-131 -97 -145 -21 -22 -67 -86 -232 -322 -42 -61 -61 -73 -27 -17 11 18 17 37
14 42 -3 6 -2 7 3 4 6 -3 21 12 34 34 14 21 28 39 32 39 4 0 10 10 14 23 4 12
22 40 40 63 19 23 34 48 34 58 0 9 9 25 20 36 11 11 17 20 14 20 -3 0 3 14 13
30 9 17 21 30 25 30 4 0 8 6 8 13 0 8 7 14 15 14 9 0 14 -6 11 -14 -8 -20 2
-15 14 7 8 15 8 20 -1 18 -6 -2 -14 3 -16 10 -3 6 0 12 6 12 6 0 11 9 11 20 0
11 4 20 9 20 5 0 12 16 15 35 4 20 10 34 14 31 4 -2 8 12 8 32 3 55 46 172 64
172 13 0 13 1 0 10 -8 5 -10 10 -5 10 17 0 38 60 31 91 -6 30 -5 30 24 24 29
-6 30 -5 30 27 0 45 14 67 27 43 7 -12 13 -14 17 -6 4 6 2 11 -4 11 -8 0 -10
9 -5 27 15 62 60 76 53 18 -5 -45 3 -44 26 2 10 21 22 46 27 55 5 10 9 25 9
33 0 8 9 20 20 27 11 7 25 29 30 48 5 20 19 45 29 57 11 12 23 33 27 47 3 15
11 23 17 19 7 -4 8 0 4 11 -5 12 2 28 18 48 14 16 25 34 25 39 0 5 5 9 11 9 7
0 9 -10 5 -27 -5 -23 -4 -25 5 -10 6 10 7 26 4 35 -4 9 -9 28 -11 42 -2 20 -1
22 7 10 9 -12 10 -10 6 8 -3 12 -1 20 4 16 5 -3 9 2 9 11 0 9 13 29 30 45 17
17 27 35 24 44 -3 7 -1 17 5 21 15 9 14 28 -1 19 -7 -4 -3 3 10 15 29 28 30
81 2 88 -11 3 -20 9 -20 14 0 5 -3 8 -7 7 -5 -1 -20 4 -35 11 -21 11 -40 11
-89 2 -58 -10 -65 -9 -84 9 -12 11 -31 20 -43 20 -11 0 -48 16 -81 35 -32 19
-64 35 -69 35 -5 0 -18 11 -28 25 -10 14 -22 25 -26 25 -17 0 -59 50 -52 61 5
8 2 10 -8 6 -21 -7 -52 51 -37 69 6 8 5 17 -6 27 -10 11 -13 25 -9 46 5 23 3
31 -8 31 -7 0 -15 11 -16 25 -1 18 2 23 13 19 21 -9 19 6 -10 61 -25 47 -26
49 -15 148 6 56 14 105 16 109 3 4 0 8 -5 8 -7 0 -11 25 -11 63 0 80 -32 222
-63 284 -14 26 -46 76 -71 111 -27 36 -40 62 -33 62 8 0 22 9 32 20 10 11 21
20 26 20 4 0 49 -14 100 -30z m-1518 -143 c-2 -4 -3 -12 -3 -18 0 -5 -4 -7
-10 -4 -5 3 -10 2 -10 -4 0 -5 5 -13 10 -16 6 -4 7 -11 4 -17 -4 -7 -2 -8 5
-4 6 4 8 13 4 19 -3 7 3 4 15 -7 25 -21 21 -37 -8 -31 -11 2 -20 0 -20 -4 0
-4 -17 -13 -37 -19 l-38 -11 24 20 c14 11 24 32 26 52 2 17 3 37 4 44 1 6 9
10 19 9 9 -2 16 -6 15 -9z m577 -118 c65 -29 150 -58 185 -62 58 -7 101 -43
111 -94 6 -29 5 -30 -25 -25 l-32 4 23 -37 c12 -21 24 -33 26 -26 2 6 -2 18
-8 27 -7 8 -11 17 -8 19 3 3 11 -1 17 -9 12 -14 7 -76 -6 -76 -3 0 -28 14 -55
30 -26 17 -53 30 -58 30 -17 0 -90 49 -136 92 -24 22 -44 35 -44 27 0 -24 106
-113 181 -153 76 -40 136 -94 145 -132 3 -12 4 -36 2 -55 l-4 -34 -12 27 c-13
30 -63 61 -86 52 -12 -5 -10 -15 15 -61 17 -30 27 -58 24 -61 -3 -3 -33 0 -67
7 -64 13 -105 39 -144 92 -50 68 -169 149 -190 131 -4 -4 -4 1 -1 11 17 46
-69 -20 -89 -70 -20 -46 -17 -84 12 -203 23 -91 25 -111 15 -147 -14 -51 -24
-54 -41 -10 -26 69 -30 77 -41 77 -8 0 -10 -19 -7 -59 4 -54 3 -59 -13 -50
-33 17 -71 93 -74 149 -1 8 -6 33 -13 55 -6 22 -18 80 -27 129 -8 49 -26 114
-40 144 -14 30 -24 56 -23 58 2 1 27 -4 55 -11 49 -13 59 -12 142 11 95 26
122 37 162 69 32 25 73 109 66 135 -6 25 6 25 63 -1z m-523 5 c-3 -3 -12 -4
-19 -1 -8 3 -5 6 6 6 11 1 17 -2 13 -5z m-817 -56 c0 25 16 11 17 -15 1 -16
-1 -22 -4 -15 -2 6 -9 12 -15 12 -16 0 -38 27 -38 47 0 13 5 11 20 -12 11 -16
20 -24 20 -17z m1264 17 c-4 -8 -8 -15 -10 -15 -2 0 -4 7 -4 15 0 8 4 15 10
15 5 0 7 -7 4 -15z m-420 -159 c-3 -14 2 -50 11 -82 14 -48 45 -204 45 -226 0
-18 -83 -108 -99 -108 -11 0 -31 14 -44 30 -14 17 -30 30 -36 30 -17 0 -13 42
9 85 11 22 20 44 20 50 0 5 14 36 30 69 16 32 35 85 42 117 7 32 16 59 20 59
5 0 6 -11 2 -24z m-547 -18 c-3 -7 -5 -2 -5 12 0 14 2 19 5 13 2 -7 2 -19 0
-25z m117 2 c13 0 16 -4 10 -17 -15 -37 -15 -94 0 -164 10 -40 13 -75 9 -79
-4 -4 -37 -28 -72 -54 l-63 -48 6 74 c3 40 9 127 12 194 l7 121 36 -13 c20 -7
44 -13 55 -14z m-481 -70 c3 -11 1 -20 -4 -20 -5 0 -9 9 -9 20 0 11 2 20 4 20
2 0 6 -9 9 -20z m4 -52 c-3 -8 -6 -5 -6 6 -1 11 2 17 5 13 3 -3 4 -12 1 -19z
m363 -2 c0 -8 -4 -17 -9 -21 -6 -3 -9 4 -8 15 1 23 17 28 17 6z m847 -42 c-9
-30 -7 -47 13 -105 13 -38 26 -65 30 -59 5 8 9 6 13 -5 4 -9 3 -14 -2 -11 -5
3 -8 -15 -6 -42 3 -47 3 -47 -7 -12 -6 19 -21 62 -33 95 -30 78 -36 118 -22
154 15 42 27 29 14 -15z m43 6 c0 -5 -4 -10 -10 -10 -5 0 -10 5 -10 10 0 6 5
10 10 10 6 0 10 -4 10 -10z m48 -20 c24 -32 29 -64 10 -57 -7 2 -13 10 -13 18
0 8 -8 23 -17 33 -10 11 -18 23 -18 28 0 17 17 7 38 -22z m-1288 -4 c0 -11
-19 -15 -25 -6 -3 5 1 10 9 10 9 0 16 -2 16 -4z m1657 -38 c25 -28 37 -64 24
-72 -7 -5 -61 75 -61 90 0 11 19 1 37 -18z m-1670 -10 c-3 -8 -6 -5 -6 6 -1
11 2 17 5 13 3 -3 4 -12 1 -19z m342 -60 c-1 -39 -2 -41 -8 -13 -4 17 -5 36
-3 43 8 23 12 12 11 -30z m-337 -35 c2 -24 1 -43 -3 -43 -7 0 -19 51 -19 83 0
37 18 4 22 -40z m1736 -8 c-2 -5 -11 -11 -21 -12 -15 -3 -16 -1 -5 12 14 15
32 16 26 0z m584 -27 c-8 -8 -9 -4 -5 13 4 13 8 18 11 10 2 -7 -1 -18 -6 -23z
m-642 14 c-8 -3 -17 -8 -20 -12 -6 -8 -80 0 -80 9 0 3 26 6 58 7 31 0 50 -1
42 -4z m-1340 -12 c0 -5 -2 -10 -4 -10 -3 0 -8 5 -11 10 -3 6 -1 10 4 10 6 0
11 -4 11 -10z m468 -20 c7 -11 9 -20 4 -20 -4 0 -13 9 -20 20 -7 11 -9 20 -4
20 4 0 13 -9 20 -20z m-488 3 c0 -5 -15 -16 -33 -26 l-32 -18 25 25 c25 25 40
32 40 19z m-313 -25 c-3 -8 -6 -5 -6 6 -1 11 2 17 5 13 3 -3 4 -12 1 -19z m2
-65 c0 -25 -1 -26 -9 -8 -12 27 -12 35 0 35 6 0 10 -12 9 -27z m2191 -13 c-6
-11 -13 -20 -16 -20 -2 0 0 9 6 20 6 11 13 20 16 20 2 0 0 -9 -6 -20z m-1057
-60 c-7 -8 -23 24 -22 45 0 15 3 13 13 -10 7 -16 11 -32 9 -35z m987 25 c-7
-9 -15 -13 -17 -11 -6 6 20 36 26 30 2 -2 -2 -10 -9 -19z m-1885 -25 c-2 -40
-12 -48 -29 -24 -14 19 -12 39 4 29 4 -3 10 2 14 10 9 23 13 18 11 -15z m1935
26 c0 -2 -8 -10 -17 -17 -16 -13 -17 -12 -4 4 13 16 21 21 21 13z m-2173 -68
c-2 -13 -4 -3 -4 22 0 25 2 35 4 23 2 -13 2 -33 0 -45z m1959 47 c14 -13 14
-15 0 -15 -9 0 -16 6 -16 13 0 8 -4 7 -10 -3 -5 -8 -10 -10 -10 -4 0 11 10 24
17 24 3 0 11 -7 19 -15z m72 -122 c0 -48 -3 -81 -8 -74 -4 8 -13 10 -20 6 -7
-4 -4 4 5 18 11 17 16 42 15 69 -3 49 -2 68 4 68 2 0 4 -39 4 -87z m-683 18
c0 -45 -11 -46 -17 -2 -2 17 -1 28 4 25 4 -3 8 0 8 5 0 6 1 11 3 11 2 0 3 -18
2 -39z m753 -3 c-5 -23 -12 -45 -14 -48 -6 -6 6 70 13 83 10 17 10 4 1 -35z
m-108 11 c-7 -11 -14 -18 -17 -15 -3 3 0 12 7 21 18 21 23 19 10 -6z m-1993
-11 c-3 -8 -6 -5 -6 6 -1 11 2 17 5 13 3 -3 4 -12 1 -19z m18 -28 c3 -5 2 -10
-4 -10 -5 0 -13 5 -16 10 -3 6 -2 10 4 10 5 0 13 -4 16 -10z m1929 -8 c2 -4
-4 -8 -14 -8 -10 0 -16 4 -14 8 3 4 9 8 14 8 5 0 11 -4 14 -8z m-1720 -34 c4
-17 2 -28 -4 -28 -5 0 -10 8 -11 18 0 15 -1 15 -8 -2 -4 -11 -10 -15 -14 -9
-5 9 21 59 28 51 1 -2 5 -15 9 -30z m-220 1 c-3 -5 -10 -7 -15 -3 -5 3 -7 10
-3 15 3 5 10 7 15 3 5 -3 7 -10 3 -15z m2014 -76 c-1 -38 -1 -38 -5 -5 -3 20
-8 30 -15 26 -7 -4 -8 -2 -4 4 14 24 26 11 24 -25z m-778 9 c0 -10 -7 -19 -15
-19 -27 0 -18 27 13 36 1 1 2 -7 2 -17z m190 8 c0 -5 -2 -10 -4 -10 -3 0 -8 5
-11 10 -3 6 -1 10 4 10 6 0 11 -4 11 -10z m647 -37 c-3 -10 -5 -4 -5 12 0 17
2 24 5 18 2 -7 2 -21 0 -30z m-347 7 c0 -5 -4 -10 -10 -10 -5 0 -10 5 -10 10
0 6 5 10 10 10 6 0 10 -4 10 -10z m-100 -28 c0 -24 -47 -50 -87 -49 -50 2 -48
9 9 27 24 7 47 17 53 22 12 10 25 10 25 0z m380 -36 c0 -39 -107 -466 -145
-581 -15 -44 -28 -88 -30 -97 -8 -41 -58 -217 -75 -268 -10 -30 -49 -149 -85
-265 -95 -303 -135 -423 -134 -400 3 53 -2 86 -11 80 -6 -3 -8 -18 -4 -33 5
-25 4 -25 -9 -9 -8 9 -20 17 -28 17 -8 0 -3 9 12 23 22 18 24 25 15 42 -6 11
-14 22 -17 25 -3 3 -9 18 -13 35 l-8 30 21 -24 21 -24 -6 31 c-4 19 -2 32 3
32 6 0 11 26 12 57 0 31 5 59 9 62 10 8 52 67 52 75 0 3 -6 6 -14 6 -15 0 -11
46 5 56 5 3 9 14 9 25 0 10 5 19 10 19 6 0 10 9 10 20 0 11 -4 20 -10 20 -5 0
-10 5 -10 11 0 5 5 7 10 4 6 -3 10 3 10 14 0 10 -6 22 -12 24 -9 4 -10 8 -2
14 6 4 14 29 18 54 6 42 5 47 -14 52 -21 5 -22 10 -18 136 2 82 -1 132 -7 134
-13 5 13 37 29 37 6 0 19 -9 29 -20 16 -19 16 -20 -3 -20 -11 0 -20 -4 -20
-10 0 -5 14 -10 30 -10 17 0 30 5 30 10 0 6 5 10 10 10 6 0 10 -22 10 -50 0
-27 5 -50 10 -50 6 0 10 15 10 34 0 44 9 66 26 66 8 0 14 5 14 10 0 6 -7 10
-15 10 -18 0 -20 37 -3 42 8 3 13 25 14 55 1 48 22 88 45 88 4 0 10 3 13 8 3
4 3 5 -1 2 -12 -9 -33 17 -33 41 0 34 38 43 60 14 17 -23 17 -23 24 19 3 23
11 39 16 36 5 -3 14 4 20 15 6 11 18 20 26 20 10 0 14 6 11 15 -4 8 -2 17 2
20 5 3 7 14 4 25 -3 12 0 20 6 20 7 0 9 4 6 10 -3 5 0 20 7 32 7 13 13 28 13
33 1 6 7 38 15 72 15 65 30 75 30 19z m55 -13 c-9 -37 -18 -20 -9 19 4 18 9
27 11 20 3 -7 2 -24 -2 -39z m-880 17 c3 -6 -1 -7 -9 -4 -18 7 -21 14 -7 14 6
0 13 -4 16 -10z m1794 -43 c1 -5 -3 -5 -9 -2 -5 3 -10 16 -9 28 0 21 1 21 9 2
5 -11 9 -24 9 -28z m-2732 1 c-3 -8 -6 -5 -6 6 -1 11 2 17 5 13 3 -3 4 -12 1
-19z m1913 2 c0 -5 -7 -10 -16 -10 -8 0 -12 5 -9 10 3 6 10 10 16 10 5 0 9 -4
9 -10z m-1055 -20 c3 -5 2 -10 -4 -10 -5 0 -13 5 -16 10 -3 6 -2 10 4 10 5 0
13 -4 16 -10z m-813 -35 c12 5 13 -1 9 -27 -4 -24 -6 -27 -9 -12 -2 12 -14 26
-28 32 -13 7 -24 20 -24 29 1 16 3 15 19 -5 11 -12 26 -20 33 -17z m-292 -15
c0 -5 -2 -10 -4 -10 -3 0 -8 5 -11 10 -3 6 -1 10 4 10 6 0 11 -4 11 -10z
m1925 -39 c3 -5 2 -12 -3 -15 -5 -3 -9 1 -9 9 0 17 3 19 12 6z m-1620 -62 c0
-21 -3 -39 -7 -39 -5 0 -8 21 -8 47 0 25 3 43 8 39 4 -4 7 -25 7 -47z m671
-24 c-1 -41 -4 -75 -8 -75 -5 0 -8 8 -9 18 0 14 -2 14 -9 -3 -6 -15 -9 -6 -9
33 -1 37 -5 54 -16 58 -24 9 -18 20 18 32 17 5 32 10 33 11 0 1 0 -33 0 -74z
m-966 45 c0 -5 -2 -10 -4 -10 -3 0 -8 5 -11 10 -3 6 -1 10 4 10 6 0 11 -4 11
-10z m0 -45 c0 -8 -2 -15 -4 -15 -2 0 -6 7 -10 15 -3 8 -1 15 4 15 6 0 10 -7
10 -15z m843 -2 c2 -5 1 -19 -3 -33 -6 -24 -7 -24 -11 8 -5 29 4 44 14 25z
m-550 -60 c-3 -16 -5 -40 -4 -55 0 -14 -6 -31 -13 -37 -11 -9 -12 -3 -6 31 5
24 6 46 4 50 -6 9 6 38 16 38 4 0 5 -12 3 -27z m324 -145 c-3 -8 -6 -5 -6 6
-1 11 2 17 5 13 3 -3 4 -12 1 -19z m-1 -75 c-11 -11 -17 4 -9 23 7 18 8 18 11
1 2 -10 1 -21 -2 -24z m-346 13 c0 -3 -4 -8 -10 -11 -5 -3 -10 -1 -10 4 0 6 5
11 10 11 6 0 10 -2 10 -4z m577 -68 c-3 -8 -6 -5 -6 6 -1 11 2 17 5 13 3 -3 4
-12 1 -19z m-227 -33 c0 -8 -4 -15 -10 -15 -5 0 -7 7 -4 15 4 8 8 15 10 15 2
0 4 -7 4 -15z m-380 -26 c0 -5 -4 -9 -10 -9 -5 0 -10 7 -10 16 0 8 5 12 10 9
6 -3 10 -10 10 -16z m-135 -182 c-4 -16 -12 -24 -20 -21 -16 6 -16 46 -1 56
17 11 28 -7 21 -35z m119 -46 c3 -5 -1 -11 -9 -14 -9 -4 -12 -1 -8 9 6 16 10
17 17 5z m1671 -41 c3 -5 1 -10 -4 -10 -6 0 -11 5 -11 10 0 6 2 10 4 10 3 0 8
-4 11 -10z m-1732 -95 c-3 -9 -8 -14 -10 -11 -3 3 -2 9 2 15 9 16 15 13 8 -4z
m976 -57 c-5 -112 -39 -139 -39 -32 0 52 4 70 18 80 9 7 19 14 20 14 2 0 3
-28 1 -62z m191 -98 c0 -5 -7 -10 -15 -10 -8 0 -15 5 -15 10 0 6 7 10 15 10 8
0 15 -4 15 -10z m-208 -56 c-6 -48 -22 -52 -22 -5 0 30 4 41 13 38 7 -2 11
-16 9 -33z m-1066 -22 c-14 -14 -29 -23 -32 -19 -9 9 38 55 50 49 4 -2 -4 -16
-18 -30z m1065 -64 c-3 -21 -6 -26 -9 -15 -3 17 3 47 11 47 2 0 1 -15 -2 -32z
m339 -203 c0 -8 -7 -15 -15 -15 -16 0 -20 12 -8 23 11 12 23 8 23 -8z"/>
<path d="M1493 3113 c-3 -10 -8 -22 -11 -28 -3 -5 4 -1 16 9 24 20 28 36 12
36 -6 0 -13 -8 -17 -17z"/>
<path d="M2130 2340 c0 -5 5 -10 11 -10 5 0 7 5 4 10 -3 6 -8 10 -11 10 -2 0
-4 -4 -4 -10z"/>
<path d="M2325 2240 c-10 -11 -16 -22 -14 -24 2 -2 12 7 22 20 22 29 17 32 -8
4z"/>
<path d="M2330 2210 c0 -5 -9 -10 -20 -10 -24 0 -44 -32 -29 -47 8 -8 7 -13 0
-17 -6 -4 -11 -12 -11 -17 0 -6 7 -4 15 5 8 8 12 22 9 31 -4 10 -1 21 7 26 10
5 16 3 21 -9 5 -14 7 -12 7 6 1 13 5 20 11 17 6 -3 7 1 4 9 -7 18 -14 21 -14
6z"/>
<path d="M1750 2145 c-7 -9 -8 -15 -2 -15 5 0 12 7 16 15 3 8 4 15 2 15 -2 0
-9 -7 -16 -15z"/>
<path d="M1813 2115 c-10 -10 -9 -14 2 -19 17 -6 26 5 17 21 -5 8 -11 7 -19
-2z"/>
<path d="M1770 2099 c0 -5 5 -7 10 -4 6 3 10 8 10 11 0 2 -4 4 -10 4 -5 0 -10
-5 -10 -11z"/>
<path d="M1849 2099 c-7 -34 -4 -46 13 -41 10 2 18 8 18 12 0 8 -29 35 -31 29z"/>
<path d="M1980 2080 c0 -5 6 -10 14 -10 8 0 18 5 21 10 3 6 -3 10 -14 10 -12
0 -21 -4 -21 -10z"/>
<path d="M1888 2053 c-10 -2 -18 -9 -18 -14 0 -13 12 -11 34 6 20 15 16 17
-16 8z"/>
<path d="M2004 1900 c0 -9 6 -17 13 -17 7 0 9 5 6 10 -3 5 1 13 8 18 10 6 8 8
-6 7 -12 -1 -21 -9 -21 -18z"/>
<path d="M1560 1894 c0 -16 -2 -17 -10 -4 -6 9 -10 10 -10 3 0 -19 20 -26 26
-8 4 9 4 19 0 22 -3 4 -6 -2 -6 -13z"/>
<path d="M1970 1900 c0 -5 5 -10 10 -10 6 0 10 5 10 10 0 6 -4 10 -10 10 -5 0
-10 -4 -10 -10z"/>
<path d="M1519 1893 c0 -5 -2 -16 -4 -25 -3 -19 10 -24 20 -8 3 6 2 10 -4 10
-6 0 -8 7 -5 15 4 8 3 15 0 15 -3 0 -6 -3 -7 -7z"/>
<path d="M1595 1860 c3 -5 8 -10 11 -10 2 0 4 5 4 10 0 6 -5 10 -11 10 -5 0
-7 -4 -4 -10z"/>
<path d="M1985 1860 c4 -6 11 -8 16 -5 14 9 11 15 -7 15 -8 0 -12 -5 -9 -10z"/>
<path d="M2650 2060 c0 -5 4 -10 9 -10 6 0 13 5 16 10 3 6 -1 10 -9 10 -9 0
-16 -4 -16 -10z"/>
<path d="M2830 1948 c0 -21 38 -34 53 -19 8 8 6 11 -9 11 -11 0 -25 5 -32 12
-9 9 -12 8 -12 -4z"/>
<path d="M3268 1913 c3 -18 7 -21 13 -11 12 18 11 25 -4 31 -10 4 -13 -2 -9
-20z"/>
<path d="M2880 1911 c0 -17 30 -25 43 -12 8 8 8 11 0 11 -6 0 -18 3 -27 6 -9
3 -16 1 -16 -5z"/>
<path d="M3262 1845 c0 -16 2 -22 5 -12 2 9 2 23 0 30 -3 6 -5 -1 -5 -18z"/>
<path d="M2801 954 c0 -11 3 -14 6 -6 3 7 2 16 -1 19 -3 4 -6 -2 -5 -13z"/>
<path d="M2754 785 c-3 -8 -4 -20 -2 -27 3 -7 7 -1 10 15 6 29 1 36 -8 12z"/>
<path d="M2171 1454 c0 -11 3 -14 6 -6 3 7 2 16 -1 19 -3 4 -6 -2 -5 -13z"/>
<path d="M2051 1154 c0 -11 3 -14 6 -6 3 7 2 16 -1 19 -3 4 -6 -2 -5 -13z"/>
<path d="M1980 1110 c0 -11 5 -20 10 -20 6 0 10 9 10 20 0 11 -4 20 -10 20 -5
0 -10 -9 -10 -20z"/>
<path d="M1950 1040 c-5 -18 -4 -80 1 -80 12 0 18 42 9 63 -5 12 -9 20 -10 17z"/>
<path d="M1898 563 c7 -3 16 -2 19 1 4 3 -2 6 -13 5 -11 0 -14 -3 -6 -6z"/>
<path d="M1875 509 c-4 -6 -5 -12 -2 -15 2 -3 7 2 10 11 7 17 1 20 -8 4z"/>
<path d="M1860 465 c0 -8 5 -15 10 -15 6 0 10 7 10 15 0 8 -4 15 -10 15 -5 0
-10 -7 -10 -15z"/>
<path d="M1850 430 c0 -5 5 -10 11 -10 5 0 7 5 4 10 -3 6 -8 10 -11 10 -2 0
-4 -4 -4 -10z"/>
<path d="M1823 325 c-3 -9 -3 -18 -1 -21 3 -3 8 4 11 16 6 23 -1 27 -10 5z"/>
<path d="M1810 280 c0 -5 5 -10 11 -10 5 0 7 5 4 10 -3 6 -8 10 -11 10 -2 0
-4 -4 -4 -10z"/>
<path d="M1202 1530 c0 -14 2 -19 5 -12 2 6 2 18 0 25 -3 6 -5 1 -5 -13z"/>
<path d="M547 720 c-3 -11 -1 -20 4 -20 5 0 9 9 9 20 0 11 -2 20 -4 20 -2 0
-6 -9 -9 -20z"/>
<path d="M571 630 c14 -31 19 -36 19 -24 0 6 -7 19 -16 30 -14 18 -14 18 -3
-6z"/>
<path d="M595 565 c4 -16 11 -55 15 -85 l7 -55 2 56 c1 35 -5 68 -15 85 l-16
29 7 -30z"/>
<path d="M602 390 c0 -14 2 -19 5 -12 2 6 2 18 0 25 -3 6 -5 1 -5 -13z"/>
<path d="M565 298 c-17 -29 -17 -31 -1 -19 21 17 40 51 29 51 -5 0 -17 -15
-28 -32z"/>
<path d="M580 160 c0 -46 -3 -52 -27 -62 -25 -10 -26 -12 -8 -16 29 -7 56 33
53 80 -3 59 -18 57 -18 -2z"/>
</g>
</svg>
